# Blender 3.3.1
# www.blender.org
mtllib Sling.mtl
o Cube
v -0.052618 -0.098344 0.000000
v 0.052492 -0.098344 0.000000
v 0.082891 0.388566 0.000000
v -0.082891 0.388566 0.000000
v 0.072690 -0.071782 0.000000
v -0.072690 -0.071782 0.000000
v -0.001045 -0.095934 -0.061249
v -0.002525 0.377869 -0.110000
v -0.002525 0.490965 0.000000
v -0.002525 -0.100000 0.000000
v -0.002525 0.583535 -0.345491
v -0.002525 0.625717 -0.246719
v -0.001547 0.925061 -0.345491
v -0.001686 0.926482 -0.246719
v -0.002525 0.887511 -0.345491
v -0.002525 0.904475 -0.246719
v -0.001827 0.356362 -0.082361
v -0.001359 -0.080515 -0.080786
v -0.015302 0.490965 0.000000
v -0.051826 0.468478 0.000000
v 0.051797 0.468484 0.000000
v 0.015302 0.490965 0.000000
v -0.015194 0.625717 -0.246719
v -0.043265 0.614539 -0.272895
v 0.043265 0.614539 -0.272895
v 0.015194 0.625717 -0.246719
v -0.044626 0.941154 -0.273067
v -0.037981 0.926482 -0.246719
v 0.037981 0.926482 -0.246719
v 0.044626 0.941154 -0.273067
v 0.071604 0.904475 -0.246719
v 0.100000 0.899988 -0.272845
v -0.071604 0.904475 -0.246719
v -0.100000 0.899988 -0.272845
v -0.049566 -0.096698 -0.045291
v -0.018603 -0.095934 -0.061249
v -0.014577 0.377869 -0.110000
v -0.057560 0.410488 -0.072784
v 0.018478 -0.095934 -0.061249
v 0.049439 -0.096698 -0.045294
v 0.057499 0.409961 -0.072167
v 0.014577 0.377869 -0.110000
v 0.014480 0.583535 -0.345491
v 0.043265 0.594947 -0.318771
v -0.043265 0.594945 -0.318776
v -0.014480 0.583535 -0.345491
v -0.031943 0.925061 -0.345491
v -0.044626 0.941154 -0.318570
v 0.044626 0.941154 -0.318565
v 0.031943 0.925061 -0.345491
v -0.070947 0.887511 -0.345491
v -0.100000 0.892103 -0.318755
v 0.070947 0.887511 -0.345491
v 0.100000 0.892104 -0.318750
v -0.043916 0.356362 -0.082361
v -0.076236 0.368211 -0.056188
v 0.076235 0.368209 -0.056193
v 0.043916 0.356362 -0.082361
v -0.068470 -0.077744 -0.058714
v -0.025576 -0.080515 -0.080786
v 0.025576 -0.080515 -0.080786
v 0.068467 -0.077744 -0.058718
v -0.001127 0.941154 -0.273067
v -0.001127 0.941154 -0.318567
v -0.001045 -0.095934 0.061249
v -0.002525 0.377869 0.110000
v -0.002525 0.583535 0.345491
v -0.002525 0.625717 0.246719
v -0.001547 0.925061 0.345491
v -0.001686 0.926482 0.246719
v -0.002525 0.887511 0.345491
v -0.002525 0.904475 0.246719
v -0.001827 0.356362 0.082361
v -0.001359 -0.080515 0.080786
v -0.015194 0.625717 0.246719
v -0.043265 0.614539 0.272895
v 0.043265 0.614539 0.272895
v 0.015194 0.625717 0.246719
v -0.044626 0.941154 0.273067
v -0.037981 0.926482 0.246719
v 0.037981 0.926482 0.246719
v 0.044626 0.941154 0.273067
v 0.071604 0.904475 0.246719
v 0.100000 0.899988 0.272845
v -0.071604 0.904475 0.246719
v -0.100000 0.899988 0.272845
v -0.049566 -0.096698 0.045291
v -0.018603 -0.095934 0.061249
v -0.014577 0.377869 0.110000
v -0.057560 0.410488 0.072784
v 0.018478 -0.095934 0.061249
v 0.049439 -0.096698 0.045294
v 0.057499 0.409961 0.072167
v 0.014577 0.377869 0.110000
v 0.014480 0.583535 0.345491
v 0.043265 0.594947 0.318771
v -0.043265 0.594945 0.318776
v -0.014480 0.583535 0.345491
v -0.031943 0.925061 0.345491
v -0.044626 0.941154 0.318570
v 0.044626 0.941154 0.318565
v 0.031943 0.925061 0.345491
v -0.070947 0.887511 0.345491
v -0.100000 0.892103 0.318755
v 0.070947 0.887511 0.345491
v 0.100000 0.892104 0.318750
v -0.043916 0.356362 0.082361
v -0.076236 0.368211 0.056188
v 0.076235 0.368209 0.056193
v 0.043916 0.356362 0.082361
v -0.068470 -0.077744 0.058714
v -0.025576 -0.080515 0.080786
v 0.025576 -0.080515 0.080786
v 0.068467 -0.077744 0.058718
v -0.001127 0.941154 0.273067
v -0.001127 0.941154 0.318567
vn -0.0965 -0.9201 -0.3797
vn -0.2448 -0.4260 -0.8710
vn -0.0000 -0.4378 -0.8991
vn -0.0002 -0.9356 -0.3532
vn 0.8827 0.0848 -0.4621
vn 0.9284 0.0035 -0.3716
vn 0.8941 0.4479 -0.0000
vn 0.9784 0.2069 -0.0000
vn -0.0000 -0.4409 -0.8976
vn -0.0000 -0.7715 -0.6362
vn 0.3209 -0.6650 -0.6744
vn 0.4242 -0.1281 -0.8964
vn -0.4434 0.2888 0.8485
vn -0.0000 -0.0000 1.0000
vn -0.0000 0.5067 0.8621
vn -0.1642 0.5378 0.8269
vn -0.8955 0.2716 -0.3526
vn -0.8793 0.3262 0.3471
vn -0.3176 0.9201 0.2293
vn -0.3395 0.8855 -0.3173
vn 0.2450 -0.4263 -0.8708
vn 0.0956 -0.9204 -0.3792
vn -0.0000 1.0000 -0.0000
vn -0.0000 0.5102 0.8600
vn -0.3862 0.4623 0.7982
vn -0.3422 0.9396 -0.0000
vn 0.3423 0.9396 -0.0000
vn 0.3862 0.4623 0.7982
vn 0.8832 -0.2555 -0.3934
vn 0.9594 0.0728 0.2727
vn -0.4237 -0.1315 -0.8962
vn -0.3201 -0.6652 -0.6746
vn -0.0000 0.4934 -0.8698
vn -0.1648 0.5033 -0.8483
vn -0.0000 0.9639 -0.2661
vn 0.4434 0.2888 0.8485
vn 0.1642 0.5378 0.8269
vn 0.3395 0.8855 -0.3173
vn -0.0000 0.9679 0.2513
vn 0.3176 0.9201 0.2293
vn -0.0000 -0.4136 -0.9104
vn -0.3465 -0.4048 -0.8462
vn -0.4351 0.1736 -0.8835
vn -0.0000 -0.0000 -1.0000
vn 0.3466 -0.4048 -0.8462
vn 0.4352 0.1736 -0.8835
vn -0.9424 -0.3346 -0.0000
vn -0.9787 0.2055 -0.0000
vn -0.8836 0.0825 -0.4610
vn -0.7909 -0.3817 -0.4783
vn -0.8940 0.4481 -0.0000
vn -0.9593 0.0730 0.2727
vn -0.8831 -0.2555 -0.3935
vn -0.9290 -0.0011 -0.3700
vn 0.3894 -0.8932 -0.2251
vn 0.4316 -0.9021 -0.0000
vn -0.0009 -1.0000 -0.0000
vn -0.3911 -0.8923 -0.2255
vn -0.4335 -0.9011 -0.0000
vn 0.7907 -0.3825 -0.4779
vn 0.9419 -0.3359 -0.0000
vn 0.8955 0.2716 -0.3525
vn 0.8793 0.3262 0.3471
vn 0.1648 0.5033 -0.8483
vn -0.0965 -0.9201 0.3797
vn -0.0002 -0.9356 0.3532
vn -0.0000 -0.4378 0.8991
vn -0.2448 -0.4260 0.8710
vn 0.8827 0.0848 0.4621
vn 0.9284 0.0035 0.3716
vn -0.0000 -0.4409 0.8976
vn 0.4242 -0.1281 0.8964
vn 0.3209 -0.6650 0.6744
vn -0.0000 -0.7715 0.6362
vn -0.4434 0.2888 -0.8485
vn -0.1642 0.5378 -0.8269
vn -0.0000 0.5067 -0.8621
vn -0.8955 0.2716 0.3526
vn -0.3395 0.8855 0.3173
vn -0.3176 0.9201 -0.2293
vn -0.8793 0.3262 -0.3471
vn 0.0956 -0.9204 0.3792
vn 0.2450 -0.4263 0.8708
vn -0.3862 0.4623 -0.7982
vn -0.0000 0.5102 -0.8600
vn 0.3862 0.4623 -0.7982
vn 0.9594 0.0728 -0.2727
vn 0.8832 -0.2555 0.3934
vn -0.4237 -0.1315 0.8962
vn -0.3201 -0.6652 0.6746
vn -0.0000 0.4934 0.8698
vn -0.0000 0.9639 0.2661
vn -0.1648 0.5033 0.8483
vn 0.1642 0.5378 -0.8269
vn 0.4434 0.2888 -0.8485
vn 0.3395 0.8855 0.3173
vn 0.3176 0.9201 -0.2293
vn -0.0000 0.9679 -0.2513
vn -0.0000 -0.4136 0.9104
vn -0.4351 0.1736 0.8835
vn -0.3465 -0.4048 0.8462
vn 0.3466 -0.4048 0.8462
vn 0.4352 0.1736 0.8835
vn -0.7909 -0.3817 0.4783
vn -0.8836 0.0825 0.4610
vn -0.9290 -0.0011 0.3700
vn -0.8831 -0.2555 0.3935
vn -0.9593 0.0730 -0.2727
vn 0.3894 -0.8932 0.2251
vn -0.3911 -0.8923 0.2255
vn 0.7907 -0.3825 0.4779
vn 0.8793 0.3262 -0.3471
vn 0.8955 0.2716 0.3525
vn 0.1648 0.5033 0.8483
vt 0.125000 0.623465
vt 0.375000 0.126535
vt 0.375000 0.623465
vt 0.613748 0.623465
vt 0.613748 0.126535
vt 0.386937 0.623465
vt 0.386937 0.126535
vt 0.375000 0.371843
vt 0.246843 0.500000
vt 0.625000 0.371843
vt 0.753157 0.500000
vt 0.753157 0.623465
vt 0.246843 0.623465
vt 0.753157 0.500000
vt 0.753157 0.623465
vt 0.753157 0.500000
vt 0.753157 0.623465
vt 0.753157 0.500000
vt 0.753157 0.623465
vt 0.613748 0.371843
vt 0.386937 0.371843
vt 0.791369 0.623465
vt 0.622851 0.130709
vt 0.875000 0.606512
vt 0.622216 0.627879
vt 0.625000 0.610335
vt 0.703262 0.623465
vt 0.791045 0.623465
vt 0.875000 0.590745
vt 0.625000 0.590745
vt 0.703565 0.623465
vt 0.875000 0.590531
vt 0.811963 0.623465
vt 0.688037 0.623465
vt 0.625000 0.590531
vt 0.660494 0.623465
vt 0.625000 0.590808
vt 0.839506 0.623465
vt 0.875000 0.590808
vt 0.125000 0.539177
vt 0.375000 0.210823
vt 0.190433 0.500000
vt 0.375000 0.315433
vt 0.789200 0.500000
vt 0.625000 0.335800
vt 0.875000 0.538344
vt 0.624226 0.207056
vt 0.309567 0.500000
vt 0.375000 0.434567
vt 0.375000 0.539170
vt 0.625000 0.539076
vt 0.624014 0.545289
vt 0.705292 0.500000
vt 0.625000 0.419708
vt 0.705561 0.500000
vt 0.625000 0.533401
vt 0.875000 0.533395
vt 0.788912 0.500000
vt 0.806461 0.500000
vt 0.875000 0.533652
vt 0.625000 0.533658
vt 0.693539 0.500000
vt 0.838683 0.500000
vt 0.875000 0.533421
vt 0.661317 0.500000
vt 0.625000 0.533427
vt 0.613748 0.299138
vt 0.613748 0.204572
vt 0.613748 0.545419
vt 0.613748 0.450862
vt 0.386937 0.210822
vt 0.386937 0.315591
vt 0.386937 0.434409
vt 0.386937 0.539170
vt 0.753157 0.590531
vt 0.753157 0.533655
vt 0.375000 0.371843
vt 0.246843 0.500000
vt 0.625000 0.371843
vt 0.753157 0.500000
vt 0.753157 0.500000
vt 0.753157 0.623465
vt 0.753157 0.500000
vt 0.753157 0.623465
vt 0.753157 0.500000
vt 0.753157 0.623465
vt 0.613748 0.371843
vt 0.386937 0.371843
vt 0.791045 0.623465
vt 0.875000 0.590745
vt 0.625000 0.590745
vt 0.703565 0.623465
vt 0.875000 0.590531
vt 0.811963 0.623465
vt 0.688037 0.623465
vt 0.625000 0.590531
vt 0.660494 0.623465
vt 0.625000 0.590808
vt 0.839506 0.623465
vt 0.875000 0.590808
vt 0.125000 0.539177
vt 0.375000 0.210823
vt 0.190433 0.500000
vt 0.375000 0.315433
vt 0.789200 0.500000
vt 0.625000 0.335800
vt 0.875000 0.538344
vt 0.624226 0.207056
vt 0.309567 0.500000
vt 0.375000 0.434567
vt 0.375000 0.539170
vt 0.625000 0.539076
vt 0.624014 0.545289
vt 0.705292 0.500000
vt 0.625000 0.419708
vt 0.705561 0.500000
vt 0.625000 0.533401
vt 0.875000 0.533395
vt 0.788912 0.500000
vt 0.806461 0.500000
vt 0.875000 0.533652
vt 0.625000 0.533658
vt 0.693539 0.500000
vt 0.838683 0.500000
vt 0.875000 0.533421
vt 0.661317 0.500000
vt 0.625000 0.533427
vt 0.613748 0.299138
vt 0.613748 0.204572
vt 0.613748 0.545419
vt 0.613748 0.450862
vt 0.386937 0.210822
vt 0.386937 0.315591
vt 0.386937 0.434409
vt 0.386937 0.539170
vt 0.753157 0.590531
vt 0.753157 0.533655
s 1
usemtl Material.001
f 36/43/1 60/72/2 18/21/3 7/8/4
f 57/69/5 41/52/6 21/25/7 3/4/8
f 17/20/9 8/10/10 42/54/11 58/70/12
f 33/38/13 16/19/14 14/17/15 28/33/16
f 52/64/17 34/39/18 27/32/19 48/60/20
f 7/8/4 18/21/3 61/73/21 39/49/22
f 9/12/23 12/15/24 23/28/25 19/22/26
f 22/27/27 26/31/28 12/15/24 9/12/23
f 41/51/6 44/56/29 25/30/30 21/26/7
f 55/67/31 37/45/32 8/10/10 17/20/9
f 13/16/33 47/59/34 48/60/20 64/76/35
f 16/19/14 31/36/36 29/34/37 14/17/15
f 49/61/38 64/76/35 63/75/39 30/35/40
f 23/28/25 12/15/24 16/19/14 33/38/13
f 12/15/24 26/31/28 31/36/36 16/19/14
f 11/14/41 46/58/42 51/63/43 15/18/44
f 43/55/45 11/14/41 15/18/44 53/65/46
f 6/7/47 4/5/48 56/68/49 59/71/50
f 18/21/3 17/20/9 58/70/12 61/73/21
f 60/72/2 55/67/31 17/20/9 18/21/3
f 20/24/51 24/29/52 45/57/53 38/46/54
f 8/11/10 11/14/41 43/55/45 42/53/11
f 7/9/4 39/48/22 40/50/55 2/3/56 10/13/57
f 35/40/58 36/42/1 7/9/4 10/13/57 1/1/59
f 62/74/60 57/69/5 3/4/8 5/6/61
f 45/57/53 24/29/52 34/39/18 52/64/17
f 25/30/30 44/56/29 54/66/62 32/37/63
f 15/18/44 51/63/43 47/59/34 13/16/33
f 32/37/63 54/66/62 49/61/38 30/35/40
f 53/65/46 15/18/44 13/16/33 50/62/64
f 4/5/48 20/23/51 38/47/54 56/68/49
f 1/2/59 6/7/47 59/71/50 35/41/58
f 40/50/55 62/74/60 5/6/61 2/3/56
f 19/22/26 23/28/25 24/29/52 20/24/51
f 21/26/7 25/30/30 26/31/28 22/27/27
f 32/37/63 30/35/40 29/34/37 31/36/36
f 34/39/18 24/29/52 23/28/25 33/38/13
f 25/30/30 32/37/63 31/36/36 26/31/28
f 27/32/19 34/39/18 33/38/13 28/33/16
f 37/44/32 46/58/42 11/14/41 8/11/10
f 60/72/2 36/43/1 35/41/58 59/71/50
f 62/74/60 40/50/55 39/49/22 61/73/21
f 38/46/54 45/57/53 46/58/42 37/44/32
f 44/56/29 41/51/6 42/53/11 43/55/45
f 52/64/17 48/60/20 47/59/34 51/63/43
f 54/66/62 44/56/29 43/55/45 53/65/46
f 45/57/53 52/64/17 51/63/43 46/58/42
f 49/61/38 54/66/62 53/65/46 50/62/64
f 37/45/32 55/67/31 56/68/49 38/47/54
f 41/52/6 57/69/5 58/70/12 42/54/11
f 55/67/31 60/72/2 59/71/50 56/68/49
f 57/69/5 62/74/60 61/73/21 58/70/12
f 63/75/39 27/32/19 28/33/16 14/17/15
f 30/35/40 63/75/39 14/17/15 29/34/37
f 64/76/35 48/60/20 27/32/19 63/75/39
f 64/76/35 49/61/38 50/62/64 13/16/33
f 88/104/65 65/77/66 74/88/67 112/133/68
f 109/130/69 3/4/8 21/25/7 93/113/70
f 73/87/71 110/131/72 94/115/73 66/79/74
f 85/99/75 80/94/76 70/84/77 72/86/44
f 104/125/78 100/121/79 79/93/80 86/100/81
f 65/77/66 91/110/82 113/134/83 74/88/67
f 9/12/23 19/22/26 75/89/84 68/82/85
f 22/27/27 9/12/23 68/82/85 78/92/86
f 93/112/70 21/26/7 77/91/87 96/117/88
f 107/128/89 73/87/71 66/79/74 89/106/90
f 69/83/91 116/137/92 100/121/79 99/120/93
f 72/86/44 70/84/77 81/95/94 83/97/95
f 101/122/96 82/96/97 115/136/98 116/137/92
f 75/89/84 85/99/75 72/86/44 68/82/85
f 68/82/85 72/86/44 83/97/95 78/92/86
f 67/81/99 71/85/14 103/124/100 98/119/101
f 95/116/102 105/126/103 71/85/14 67/81/99
f 6/7/47 111/132/104 108/129/105 4/5/48
f 74/88/67 113/134/83 110/131/72 73/87/71
f 112/133/68 74/88/67 73/87/71 107/128/89
f 20/24/51 90/107/106 97/118/107 76/90/108
f 66/80/74 94/114/73 95/116/102 67/81/99
f 65/78/66 10/13/57 2/3/56 92/111/109 91/109/82
f 87/101/110 1/1/59 10/13/57 65/78/66 88/103/65
f 114/135/111 5/6/61 3/4/8 109/130/69
f 97/118/107 104/125/78 86/100/81 76/90/108
f 77/91/87 84/98/112 106/127/113 96/117/88
f 71/85/14 69/83/91 99/120/93 103/124/100
f 84/98/112 82/96/97 101/122/96 106/127/113
f 105/126/103 102/123/114 69/83/91 71/85/14
f 4/5/48 108/129/105 90/108/106 20/23/51
f 1/2/59 87/102/110 111/132/104 6/7/47
f 92/111/109 2/3/56 5/6/61 114/135/111
f 19/22/26 20/24/51 76/90/108 75/89/84
f 21/26/7 22/27/27 78/92/86 77/91/87
f 84/98/112 83/97/95 81/95/94 82/96/97
f 86/100/81 85/99/75 75/89/84 76/90/108
f 77/91/87 78/92/86 83/97/95 84/98/112
f 79/93/80 80/94/76 85/99/75 86/100/81
f 89/105/90 66/80/74 67/81/99 98/119/101
f 112/133/68 111/132/104 87/102/110 88/104/65
f 114/135/111 113/134/83 91/110/82 92/111/109
f 90/107/106 89/105/90 98/119/101 97/118/107
f 96/117/88 95/116/102 94/114/73 93/112/70
f 104/125/78 103/124/100 99/120/93 100/121/79
f 106/127/113 105/126/103 95/116/102 96/117/88
f 97/118/107 98/119/101 103/124/100 104/125/78
f 101/122/96 102/123/114 105/126/103 106/127/113
f 89/106/90 90/108/106 108/129/105 107/128/89
f 93/113/70 94/115/73 110/131/72 109/130/69
f 107/128/89 108/129/105 111/132/104 112/133/68
f 109/130/69 110/131/72 113/134/83 114/135/111
f 115/136/98 70/84/77 80/94/76 79/93/80
f 82/96/97 81/95/94 70/84/77 115/136/98
f 116/137/92 115/136/98 79/93/80 100/121/79
f 116/137/92 69/83/91 102/123/114 101/122/96
